<svg width="40" height="40" viewBox="0 0 40 40" fill="none" xmlns="http://www.w3.org/2000/svg">
<path d="M13.75 8.75C13.75 7.0924 14.4085 5.50269 15.5806 4.33058C16.7527 3.15848 18.3424 2.5 20 2.5C21.6576 2.5 23.2473 3.15848 24.4194 4.33058C25.5915 5.50269 26.25 7.0924 26.25 8.75C26.25 10.4076 25.5915 11.9973 24.4194 13.1694C23.2473 14.3415 21.6576 15 20 15C18.3424 15 16.7527 14.3415 15.5806 13.1694C14.4085 11.9973 13.75 10.4076 13.75 8.75ZM16.25 17.5C15.2554 17.5 14.3016 17.8951 13.5983 18.5983C12.8951 19.3016 12.5 20.2554 12.5 21.25V27.5C12.5 29.4891 13.2902 31.3968 14.6967 32.8033C16.1032 34.2098 18.0109 35 20 35C21.9891 35 23.8968 34.2098 25.3033 32.8033C26.7098 31.3968 27.5 29.4891 27.5 27.5V21.25C27.5 20.2554 27.1049 19.3016 26.4016 18.5983C25.6984 17.8951 24.7446 17.5 23.75 17.5H16.25ZM10.14 19.925C10.0462 20.3604 9.99932 20.8046 9.99999 21.25V27.5C9.99975 28.838 10.268 30.1625 10.7889 31.3949C11.3098 32.6274 12.0727 33.7427 13.0325 34.675L12.7825 34.745C10.8617 35.2589 8.81541 34.9891 7.09351 33.9947C5.37161 33.0004 4.11503 31.363 3.6 29.4425L2.6275 25.8175C2.5001 25.3418 2.46765 24.8456 2.532 24.3574C2.59636 23.8691 2.75625 23.3983 3.00256 22.9719C3.24887 22.5454 3.57677 22.1717 3.96754 21.8719C4.3583 21.5722 4.80427 21.3524 5.28 21.225L10.14 19.925ZM26.965 34.675C27.9252 33.743 28.6886 32.6277 29.2099 31.3952C29.7313 30.1627 29.9999 28.8382 30 27.5V21.25C29.9983 20.7933 29.9517 20.3517 29.86 19.925L34.7175 21.225C35.1935 21.3524 35.6397 21.5723 36.0307 21.8722C36.4216 22.1721 36.7497 22.5461 36.996 22.9728C37.2423 23.3995 37.4022 23.8706 37.4663 24.3592C37.5305 24.8477 37.4978 25.3441 37.37 25.82L36.4 29.4425C36.1395 30.4147 35.6859 31.3246 35.0664 32.1178C34.4468 32.9111 33.6739 33.5715 32.7938 34.0598C31.9136 34.548 30.9441 34.8541 29.9432 34.9598C28.9422 35.0655 27.9277 34.9686 26.965 34.675ZM2.5 12.5C2.5 11.1739 3.02678 9.90215 3.96446 8.96447C4.90214 8.02678 6.17391 7.5 7.49999 7.5C8.82608 7.5 10.0978 8.02678 11.0355 8.96447C11.9732 9.90215 12.5 11.1739 12.5 12.5C12.5 13.8261 11.9732 15.0979 11.0355 16.0355C10.0978 16.9732 8.82608 17.5 7.49999 17.5C6.17391 17.5 4.90214 16.9732 3.96446 16.0355C3.02678 15.0979 2.5 13.8261 2.5 12.5ZM27.5 12.5C27.5 11.1739 28.0268 9.90215 28.9645 8.96447C29.9021 8.02678 31.1739 7.5 32.5 7.5C33.8261 7.5 35.0978 8.02678 36.0355 8.96447C36.9732 9.90215 37.5 11.1739 37.5 12.5C37.5 13.8261 36.9732 15.0979 36.0355 16.0355C35.0978 16.9732 33.8261 17.5 32.5 17.5C31.1739 17.5 29.9021 16.9732 28.9645 16.0355C28.0268 15.0979 27.5 13.8261 27.5 12.5Z" fill="#3F5A2A"/>
</svg>
