<svg width="16" height="16" viewBox="0 0 16 16" fill="none" xmlns="http://www.w3.org/2000/svg">
<path d="M8.00065 6.00016C7.47021 6.00016 6.96151 6.21088 6.58643 6.58595C6.21136 6.96102 6.00065 7.46973 6.00065 8.00016C6.00065 8.5306 6.21136 9.0393 6.58643 9.41438C6.96151 9.78945 7.47021 10.0002 8.00065 10.0002C8.53108 10.0002 9.03979 9.78945 9.41486 9.41438C9.78993 9.0393 10.0006 8.5306 10.0006 8.00016C10.0006 7.46973 9.78993 6.96102 9.41486 6.58595C9.03979 6.21088 8.53108 6.00016 8.00065 6.00016ZM8.00065 4.66683C8.8847 4.66683 9.73255 5.01802 10.3577 5.64314C10.9828 6.26826 11.334 7.11611 11.334 8.00016C11.334 8.88422 10.9828 9.73206 10.3577 10.3572C9.73255 10.9823 8.8847 11.3335 8.00065 11.3335C7.11659 11.3335 6.26874 10.9823 5.64362 10.3572C5.0185 9.73206 4.66731 8.88422 4.66731 8.00016C4.66731 7.11611 5.0185 6.26826 5.64362 5.64314C6.26874 5.01802 7.11659 4.66683 8.00065 4.66683ZM12.334 4.50016C12.334 4.72118 12.2462 4.93314 12.0899 5.08942C11.9336 5.2457 11.7217 5.3335 11.5006 5.3335C11.2796 5.3335 11.0677 5.2457 10.9114 5.08942C10.7551 4.93314 10.6673 4.72118 10.6673 4.50016C10.6673 4.27915 10.7551 4.06719 10.9114 3.91091C11.0677 3.75463 11.2796 3.66683 11.5006 3.66683C11.7217 3.66683 11.9336 3.75463 12.0899 3.91091C12.2462 4.06719 12.334 4.27915 12.334 4.50016ZM8.00065 2.66683C6.35131 2.66683 6.08198 2.6715 5.31465 2.7055C4.79198 2.73016 4.44131 2.80016 4.11598 2.92683C3.84387 3.02708 3.59779 3.18725 3.39598 3.3955C3.18749 3.59724 3.02709 3.84332 2.92665 4.1155C2.79998 4.44216 2.72998 4.79216 2.70598 5.31416C2.67131 6.05016 2.66665 6.3075 2.66665 8.00016C2.66665 9.65016 2.67131 9.91883 2.70531 10.6862C2.72998 11.2082 2.79998 11.5595 2.92598 11.8842C3.03931 12.1742 3.17265 12.3828 3.39398 12.6042C3.61865 12.8282 3.82731 12.9622 4.11398 13.0728C4.44331 13.2002 4.79398 13.2708 5.31398 13.2948C6.04998 13.3295 6.30731 13.3335 7.99998 13.3335C9.64998 13.3335 9.91864 13.3288 10.686 13.2948C11.2073 13.2702 11.558 13.2002 11.884 13.0742C12.1561 12.9739 12.4022 12.8137 12.604 12.6055C12.8286 12.3815 12.9626 12.1728 13.0733 11.8855C13.2 11.5575 13.2706 11.2068 13.2946 10.6855C13.3293 9.95016 13.3333 9.69216 13.3333 8.00016C13.3333 6.35083 13.3286 6.0815 13.2946 5.31416C13.27 4.79283 13.1993 4.44083 13.0733 4.1155C12.9731 3.84338 12.8129 3.59731 12.6046 3.3955C12.4029 3.18701 12.1568 3.0266 11.8846 2.92616C11.558 2.7995 11.2073 2.7295 10.686 2.7055C9.95065 2.67083 9.69331 2.66683 7.99998 2.66683M7.99998 1.3335C9.81131 1.3335 10.0373 1.34016 10.7486 1.3735C11.458 1.40683 11.942 1.51816 12.3666 1.6835C12.8066 1.85283 13.1773 2.08216 13.548 2.45216C13.8871 2.78532 14.1494 3.18848 14.3166 3.6335C14.4813 4.05816 14.5933 4.54216 14.6266 5.25216C14.658 5.96283 14.6666 6.18883 14.6666 8.00016C14.6666 9.8115 14.66 10.0375 14.6266 10.7482C14.5933 11.4588 14.4813 11.9415 14.3166 12.3668C14.1494 12.8118 13.8871 13.215 13.548 13.5482C13.2148 13.8873 12.8117 14.1496 12.3666 14.3168C11.942 14.4815 11.458 14.5935 10.7486 14.6268C10.0373 14.6582 9.81131 14.6668 7.99998 14.6668C6.18865 14.6668 5.96265 14.6602 5.25131 14.6268C4.54198 14.5935 4.05865 14.4815 3.63331 14.3168C3.18829 14.1496 2.78513 13.8873 2.45198 13.5482C2.11285 13.215 1.85052 12.8118 1.68331 12.3668C1.51798 11.9422 1.40665 11.4582 1.37331 10.7482C1.34131 10.0375 1.33331 9.8115 1.33331 8.00016C1.33331 6.18883 1.33998 5.96283 1.37331 5.25216C1.40665 4.5415 1.51798 4.05883 1.68331 3.6335C1.85052 3.18848 2.11285 2.78532 2.45198 2.45216C2.78513 2.11303 3.18829 1.85071 3.63331 1.6835C4.05798 1.51816 4.54131 1.40683 5.25131 1.3735C5.96331 1.34216 6.18931 1.3335 8.00065 1.3335" fill="#6B6B6B"/>
</svg>
