<svg width="16" height="16" viewBox="0 0 16 16" fill="none" xmlns="http://www.w3.org/2000/svg">
<path d="M12.7 3.27353C12.0887 2.65627 11.3607 2.16684 10.5583 1.83377C9.75597 1.5007 8.89536 1.33065 8.02664 1.33353C4.38664 1.33353 1.41997 4.3002 1.41997 7.9402C1.41997 9.10687 1.72664 10.2402 2.29997 11.2402L1.36664 14.6669L4.86664 13.7469C5.8333 14.2735 6.91997 14.5535 8.02664 14.5535C11.6666 14.5535 14.6333 11.5869 14.6333 7.94687C14.6333 6.1802 13.9466 4.5202 12.7 3.27353ZM8.02664 13.4335C7.03997 13.4335 6.0733 13.1669 5.22664 12.6669L5.02664 12.5469L2.94664 13.0935L3.49997 11.0669L3.36664 10.8602C2.81834 9.9849 2.52725 8.97305 2.52664 7.9402C2.52664 4.91353 4.9933 2.44687 8.01997 2.44687C9.48664 2.44687 10.8666 3.0202 11.9 4.0602C12.4117 4.56944 12.8173 5.17523 13.0931 5.84242C13.3689 6.50961 13.5094 7.22492 13.5066 7.94687C13.52 10.9735 11.0533 13.4335 8.02664 13.4335ZM11.04 9.32687C10.8733 9.24687 10.06 8.84687 9.9133 8.78687C9.75997 8.73353 9.6533 8.70687 9.53997 8.86687C9.42664 9.03353 9.1133 9.40687 9.01997 9.51353C8.92664 9.62687 8.82664 9.6402 8.65997 9.55353C8.4933 9.47353 7.95997 9.29353 7.3333 8.73353C6.83997 8.29353 6.5133 7.75353 6.4133 7.58687C6.31997 7.4202 6.39997 7.33353 6.48664 7.24687C6.55997 7.17353 6.6533 7.05353 6.7333 6.9602C6.8133 6.86687 6.84664 6.79353 6.89997 6.68687C6.9533 6.57353 6.92664 6.4802 6.88664 6.4002C6.84664 6.3202 6.5133 5.50687 6.37997 5.17353C6.24664 4.85353 6.10664 4.89353 6.00664 4.88687H5.68664C5.5733 4.88687 5.39997 4.92687 5.24664 5.09353C5.09997 5.2602 4.6733 5.6602 4.6733 6.47353C4.6733 7.28687 5.26664 8.07353 5.34664 8.1802C5.42664 8.29353 6.5133 9.9602 8.16664 10.6735C8.55997 10.8469 8.86664 10.9469 9.10664 11.0202C9.49997 11.1469 9.85997 11.1269 10.1466 11.0869C10.4666 11.0402 11.1266 10.6869 11.26 10.3002C11.4 9.91353 11.4 9.58687 11.3533 9.51353C11.3066 9.4402 11.2066 9.40687 11.04 9.32687Z" fill="#6B6B6B"/>
</svg>
