<svg width="40" height="40" viewBox="0 0 40 40" fill="none" xmlns="http://www.w3.org/2000/svg">
<path d="M20.1667 35C19.6944 35 19.2989 34.84 18.98 34.52C18.6611 34.2 18.5011 33.8045 18.5 33.3333C18.5 33.1389 18.5417 32.9372 18.625 32.7283C18.7083 32.5194 18.8333 32.3322 19 32.1667L26.7083 24.4583L25.5 23.25L17.8333 30.9583C17.6667 31.125 17.4861 31.25 17.2917 31.3333C17.0972 31.4167 16.8889 31.4583 16.6667 31.4583C16.1944 31.4583 15.7989 31.2989 15.48 30.98C15.1611 30.6611 15.0011 30.265 15 29.7917C15 29.5139 15.0417 29.2845 15.125 29.1033C15.2083 28.9222 15.3194 28.7628 15.4583 28.625L23.1667 20.9167L22 19.75L14.2917 27.4167C14.125 27.5833 13.9444 27.7083 13.75 27.7917C13.5556 27.875 13.3333 27.9167 13.0833 27.9167C12.6389 27.9167 12.25 27.75 11.9167 27.4167C11.5833 27.0833 11.4167 26.6945 11.4167 26.25C11.4167 26.0278 11.4583 25.8195 11.5417 25.625C11.625 25.4306 11.75 25.25 11.9167 25.0833L19.625 17.375L18.4167 16.2083L10.75 23.9167C10.6111 24.0556 10.4444 24.1667 10.25 24.25C10.0556 24.3333 9.81944 24.375 9.54166 24.375C9.06944 24.375 8.67333 24.215 8.35333 23.895C8.03333 23.575 7.87388 23.1795 7.87499 22.7083C7.87499 22.4861 7.91666 22.2778 8 22.0833C8.08333 21.8889 8.20833 21.7083 8.37499 21.5417L17.6667 12.25L23.9167 18.5417C24.2222 18.8472 24.5833 19.0906 25 19.2717C25.4167 19.4528 25.8333 19.5428 26.25 19.5417C27.1389 19.5417 27.9167 19.2295 28.5833 18.605C29.25 17.9806 29.5833 17.1817 29.5833 16.2083C29.5833 15.8195 29.5139 15.4167 29.375 15C29.2361 14.5833 28.9861 14.1945 28.625 13.8333L21.1667 6.37501C21.6389 5.93056 22.1667 5.59056 22.75 5.35501C23.3333 5.11945 23.9167 5.00112 24.5 5.00001C25.2222 5.00001 25.8889 5.11834 26.5 5.35501C27.1111 5.59167 27.6667 5.95945 28.1667 6.45834L35.2083 13.5417C35.7083 14.0417 36.0767 14.5972 36.3133 15.2083C36.55 15.8195 36.6678 16.5278 36.6667 17.3333C36.6667 17.8889 36.5417 18.4517 36.2917 19.0217C36.0417 19.5917 35.6805 20.1122 35.2083 20.5833L21.3333 34.5C21.1111 34.7222 20.9167 34.8611 20.75 34.9167C20.5833 34.9722 20.3889 35 20.1667 35ZM5.87499 21.6667L4.79166 20.5833C4.31944 20.1389 3.95833 19.6111 3.70833 19C3.45833 18.3889 3.33333 17.75 3.33333 17.0833C3.33333 16.3611 3.47222 15.6945 3.74999 15.0833C4.02777 14.4722 4.37499 13.9583 4.79166 13.5417L11.8333 6.45834C12.2778 6.0139 12.8056 5.65945 13.4167 5.39501C14.0278 5.13056 14.625 4.9989 15.2083 5.00001C15.9583 5.00001 16.625 5.10445 17.2083 5.31334C17.7917 5.52223 18.3611 5.9039 18.9167 6.45834L27.4583 15C27.625 15.1667 27.75 15.3472 27.8333 15.5417C27.9167 15.7361 27.9583 15.9445 27.9583 16.1667C27.9583 16.6111 27.7917 17 27.4583 17.3333C27.125 17.6667 26.7361 17.8333 26.2917 17.8333C26.0417 17.8333 25.8333 17.7989 25.6667 17.73C25.5 17.6611 25.3194 17.5289 25.125 17.3333L17.625 9.91667L5.87499 21.6667Z" fill="#3F5A2A"/>
</svg>
