<svg width="762" height="200" viewBox="0 0 762 200" fill="none" xmlns="http://www.w3.org/2000/svg">
<path d="M456.526 163.933C447.575 163.97 438.623 164.006 429.335 163.78C428.089 163.306 427.161 163.152 426.275 162.866C425.38 162.577 424.231 162.406 423.701 161.753C419.777 156.91 415.997 151.947 412.106 147.074C411.835 146.734 411.047 146.824 410.5 146.714C408.195 144.108 405.803 141.576 403.599 138.883C391.739 124.386 379.902 109.868 368.104 95.3189C360.089 85.4357 352.172 75.47 344.171 65.5751C336.3 55.8402 328.355 46.1666 320.514 36.407C319.764 35.4738 319.133 34.1329 319.099 32.9612C318.946 27.7987 319.091 22.6279 319.001 17.4623C318.969 15.586 319.661 15.0267 321.437 15.0379C331.359 15.1006 341.283 14.9745 351.201 15.176C352.604 15.2045 354.356 16.3499 355.311 17.5195C372.421 38.4682 389.436 59.497 406.46 80.5174C409.91 84.7767 413.317 89.0718 416.744 93.3503C416.989 93.2724 417.235 93.1945 417.48 93.1166C417.567 91.4493 417.728 89.7821 417.729 88.1148C417.747 64.9133 417.796 41.7114 417.677 18.5105C417.662 15.6237 418.554 15.0069 421.199 15.0145C451.262 15.0998 481.326 15.1072 511.388 15.0001C513.942 14.991 515.024 15.954 515.98 18.1756C524.506 37.9872 533.159 57.7419 541.722 77.5368C547.764 91.5026 553.689 105.521 559.733 119.486C565.578 132.994 571.514 146.462 577.393 159.955C577.894 161.106 578.262 162.317 578.906 164.09C577.403 164.09 576.457 164.09 575.511 164.09C563.407 164.089 551.302 164.032 539.198 164.137C536.994 164.156 535.798 163.461 534.91 161.388C530.746 151.657 526.392 142.01 522.247 132.271C521.312 130.075 520.095 129.329 517.754 129.35C504.857 129.464 491.957 129.342 479.06 129.451C476.529 129.472 475.562 128.829 475.598 126.072C475.735 115.537 475.726 104.998 475.599 94.4622C475.566 91.7501 476.482 90.9834 479.049 91.0384C486.091 91.1895 493.137 91.092 500.182 91.0929C501.231 91.093 502.28 91.0929 504.057 91.0929C502.566 87.5464 501.373 84.6191 500.112 81.7224C496.337 73.0505 492.468 64.4205 488.801 55.7015C488.031 53.8698 487.064 53.3507 485.242 53.3672C476.413 53.4474 467.583 53.4116 458.246 53.5066C457.531 54.7286 457.14 55.8607 457.139 56.9931C457.107 90.9504 457.121 124.908 457.088 158.865C457.086 160.555 456.722 162.244 456.526 163.933Z" fill="#5F8B3D"/>
<path d="M30.7385 160.456C30.1639 160.4 29.5893 160.344 28.7943 160.007C28.3331 159.319 28.1873 158.7 27.8364 158.534C25.0101 157.199 22.1599 155.914 19.289 154.681C12.6882 151.846 10.4691 150.806 14.7043 143.537C16.7419 140.04 19.3008 136.291 18.9787 131.707C18.9787 131.707 19.0444 131.731 19.2143 131.665C20.8414 128.959 22.29 126.314 23.7628 123.683C24.0706 123.133 24.4678 122.635 24.8237 122.113C25.3056 122.499 25.7483 122.958 26.278 123.255C27.1723 123.756 28.1135 124.174 29.0508 124.591C29.6574 124.86 30.3061 125.03 30.9118 125.301C34.3733 126.85 37.7521 128.637 41.3109 129.895C43.6751 130.731 46.2931 130.819 48.7975 131.241C49.0626 131.261 49.3278 131.281 49.8004 131.58C50.2884 132.356 50.5047 133.229 50.8589 133.292C55.4883 134.113 60.0757 135.787 64.8624 134.278C65.3139 134.279 65.7654 134.279 66.5119 134.546C73.0578 134.933 79.3323 135.45 85.5525 135.06C91.2697 134.702 96.9441 133.546 102.318 131.156C104.535 130.17 107.228 130.269 109.402 129.221C115.673 126.199 121.922 123.077 127.917 119.531C131.407 117.466 134.424 114.552 137.594 111.944C139.773 110.15 141.867 108.246 143.967 106.354C146.633 103.952 149.3 101.55 151.876 99.051C152.283 98.6568 152.217 97.7548 152.37 97.0875C152.37 97.0875 152.403 97.1074 152.525 97.0471C152.751 96.8129 152.855 96.6392 152.96 96.4654C152.96 96.4654 152.938 96.5034 153.125 96.5141C154.208 96.1059 155.371 95.9225 155.957 95.2298C159.757 90.7373 163.56 86.2344 167.092 81.5239C168.822 79.2169 169.972 76.4566 171.385 73.9014C175.88 66.6607 180.802 59.6545 184.771 52.1241C190.626 41.0124 195.856 29.5536 201.221 18.1779C202.193 16.1148 203.198 15.0217 205.622 15.0459C217.227 15.1615 228.834 15.1266 240.44 15.0682C242.371 15.0585 243.41 15.6688 244.24 17.5962C257.992 49.5309 271.84 81.423 285.663 113.326C292.675 129.51 299.683 145.696 306.676 161.888C306.942 162.503 307.028 163.197 307.3 164.251C306.131 164.355 305.201 164.508 304.27 164.509C292.267 164.524 280.264 164.462 268.262 164.566C266.21 164.584 265.238 163.809 264.526 161.98C254.937 137.375 245.325 112.779 235.678 88.1971C231.702 78.0671 227.627 67.9776 223.411 57.4039C218.562 65.9235 213.903 74.1096 208.856 82.4167C207.838 83.0513 207.064 83.4576 206.598 84.0976C204.728 86.6677 203.227 89.5898 201.041 91.822C199.712 93.1792 199.306 94.3221 199.505 95.9898C199.505 95.9898 199.461 95.9134 199.263 95.9287C197.927 97.0916 196.714 98.1712 195.666 99.3988C192.1 103.576 188.674 107.88 185.036 111.99C182.558 114.79 179.868 117.403 177.179 119.997C173.149 123.886 169.151 127.823 164.92 131.475C161.85 134.124 158.413 136.327 155.162 138.76C151.358 141.607 147.797 144.882 143.728 147.25C139.091 149.95 134.065 151.99 129.108 154.067C123.706 156.331 118.305 158.744 112.694 160.301C105.248 162.368 97.6171 163.767 90.0255 165.236C87.8724 165.653 85.5719 165.201 83.3523 165.351C79.2309 165.631 75.1151 166.397 71.0046 166.344C65.7448 166.276 60.4624 165.828 55.2463 165.113C50.7083 164.492 46.26 163.213 41.7513 162.335C38.0963 161.624 34.4106 161.076 30.7385 160.456Z" fill="#2C3311"/>
<path d="M651.271 130.475C659.499 130.529 667.378 130.294 675.128 128.159C688.441 124.491 698.897 112.594 700.735 98.5291C701.938 89.3207 701.936 80.2165 698.286 71.4111C693.211 59.1675 683.861 52.4475 671.505 49.7882C667.377 48.8997 663.067 48.5788 658.837 48.5533C638.4 48.43 617.962 48.504 597.525 48.489C592.142 48.4851 592.912 48.9345 592.832 43.8698C592.718 36.6874 592.629 29.504 592.431 22.3239C592.229 14.9748 592.177 14.9565 599.292 14.9658C622.804 14.9963 646.333 14.5064 669.824 15.2477C689.554 15.8704 707.478 22.5482 722.214 36.5141C731.887 45.6818 738.284 56.9294 741.211 70.1184C744.843 86.4887 744.194 102.668 738.197 118.362C733.517 130.608 725.774 140.529 715.178 148.148C704.778 155.626 693.241 160.181 680.816 162.429C676.158 163.272 671.388 163.844 666.664 163.875C643.053 164.033 619.441 163.971 595.828 163.977C594.955 163.978 594.081 163.878 592.829 163.802C592.829 161.254 592.829 158.877 592.83 156.5C592.831 135.732 592.888 114.963 592.771 94.1951C592.755 91.2986 593.496 90.4055 596.383 90.4465C607.691 90.6069 619.003 90.5887 630.312 90.4559C633.095 90.4233 634.112 91.1532 634.065 94.1797C633.898 105.017 634.121 115.861 633.94 126.698C633.887 129.888 634.955 130.694 637.881 130.538C642.234 130.307 646.608 130.476 651.271 130.475Z" fill="#2C3311"/>
<path d="M81.7116 110.37C73.7104 108.341 65.9171 106.459 58.1817 104.354C47.8688 101.549 37.4111 99.0921 28.4924 92.5734C18.6881 85.4075 13.4902 75.8771 12.9621 63.4167C12.3771 49.6108 16.6262 37.9266 26.4656 28.5414C34.4966 20.881 44.3623 16.5863 55.0086 14.5759C62.3602 13.1877 69.9094 12.2593 77.3721 12.2466C93.6254 12.2189 109.464 14.9361 124.446 21.8359C130.674 24.7046 130.765 24.7174 128.165 31.0918C125.081 38.6509 122.051 46.2327 118.98 53.7975C118.648 54.6163 118.205 55.3882 117.753 56.3043C113.249 54.3099 108.977 52.2471 104.581 50.5094C96.6919 47.3903 88.5414 45.512 80.0176 45.3255C74.0623 45.1953 68.1277 45.0562 62.5024 47.3739C58.5534 49.0009 55.1226 51.2768 54.0854 56.0193C52.91 61.3935 55.6909 66.1771 61.6147 67.8369C72.3851 70.8547 83.2665 73.4611 94.0276 76.5112C103.555 79.2115 113.244 81.6726 121.304 88.0018C123.557 89.7713 125.544 91.8975 127.634 93.8806C128.783 94.9705 128.888 96.0165 127.606 97.1832C118.458 105.51 108.665 112.798 96.9231 116.878C95.9972 117.2 94.3085 117.021 93.7546 116.376C90.5851 112.684 86.1943 111.74 81.7116 110.37Z" fill="#5F8B3D"/>
<path d="M319.232 160.947C319.196 142.988 319.155 125.03 319.126 107.071C319.118 102.329 319.144 97.5863 319.43 92.5594C322.076 92.1784 321.452 94 321.454 95.2704C321.481 115.531 321.47 135.793 321.481 156.054C321.481 157.159 321.596 158.264 321.657 159.369C322.029 159.35 322.402 159.331 322.775 159.313C322.775 137.861 322.775 116.41 322.775 96.1847C324.503 97.4843 326.559 98.9867 328.55 100.574C328.85 100.813 328.76 101.503 328.996 101.892C329.83 103.263 330.63 104.676 331.629 105.918C332.609 107.138 333.972 108.05 334.889 109.308C336.663 111.744 337.775 114.933 340 116.723C344.302 120.184 347.147 124.679 350.293 129.036C351.015 130.037 352.477 130.481 353.598 131.181C353.598 131.181 353.614 131.168 353.612 131.409C354.097 132.694 354.579 133.74 355.072 134.781C356.369 137.519 358.455 140.156 358.799 143.012C359.412 148.096 359.033 153.312 358.948 158.471C358.901 161.36 357.314 162.782 354.486 162.783C345.272 162.785 336.054 162.914 326.844 162.7C324.295 162.641 321.769 161.559 319.232 160.947Z" fill="#5F8B3D"/>
<path d="M30.8441 160.65C34.4106 161.076 38.0963 161.624 41.7513 162.335C46.26 163.213 50.7083 164.492 55.2463 165.113C60.4624 165.828 65.7448 166.276 71.0046 166.344C75.1151 166.397 79.2309 165.631 83.3524 165.351C85.5719 165.201 87.8724 165.653 90.0255 165.236C97.6172 163.767 105.248 162.368 112.694 160.301C118.306 158.744 123.706 156.331 129.108 154.067C134.065 151.99 139.091 149.95 143.728 147.25C147.797 144.882 151.358 141.607 155.162 138.76C158.413 136.327 161.851 134.124 164.92 131.475C169.151 127.823 173.149 123.886 177.179 119.997C179.868 117.403 182.558 114.79 185.036 111.99C188.674 107.88 192.1 103.576 195.666 99.3988C196.714 98.1712 197.927 97.0915 199.288 95.967C197.734 98.6102 196.103 101.35 194.155 103.831C182.585 118.573 169.258 131.45 153.97 142.086C135.907 154.652 116.091 163.07 94.3923 166.163C80.2657 168.176 66.0165 168.633 51.8655 165.91C45.8579 164.754 39.884 163.411 33.91 162.082C32.8839 161.854 31.9345 161.266 30.8441 160.65Z" fill="#2C3311"/>
<path d="M353.565 130.974C352.477 130.481 351.015 130.037 350.293 129.036C347.147 124.679 344.302 120.184 340 116.723C337.775 114.933 336.663 111.744 334.889 109.308C333.972 108.05 332.609 107.138 331.629 105.918C330.63 104.676 329.83 103.263 328.996 101.892C328.76 101.503 328.85 100.813 328.55 100.574C326.559 98.9867 324.503 97.4843 322.775 96.1847C322.775 116.41 322.775 137.861 322.775 159.313C322.402 159.331 322.03 159.35 321.657 159.369C321.596 158.264 321.481 157.159 321.481 156.054C321.47 135.793 321.481 115.531 321.454 95.2704C321.452 94 322.076 92.1784 319.468 92.2782C319.229 90.6011 319.229 88.9207 319.229 87.2403C319.471 87.1049 319.713 86.9695 319.955 86.8341C331.148 101.478 342.34 116.122 353.565 130.974Z" fill="#5F8B3D"/>
<path d="M152.172 97.1281C152.217 97.7548 152.283 98.6568 151.876 99.051C149.3 101.549 146.633 103.952 143.967 106.354C141.867 108.246 139.773 110.15 137.594 111.944C134.424 114.552 131.407 117.466 127.917 119.531C121.922 123.077 115.673 126.199 109.402 129.221C107.228 130.269 104.535 130.17 102.318 131.156C96.9441 133.546 91.2697 134.702 85.5525 135.06C79.3323 135.449 73.0578 134.933 66.7339 134.59C75.8491 134.292 84.9982 134.127 94.0583 132.042C108.484 128.721 121.513 122.39 133.227 113.353C139.746 108.324 145.742 102.587 152.172 97.1281Z" fill="#2C3311"/>
<path d="M456.851 163.872C456.809 162.137 457.173 160.448 457.174 158.759C457.208 124.801 457.194 90.8439 457.226 56.8866C457.227 55.7541 457.618 54.6221 458.047 53.4149C458.28 89.3437 458.302 125.347 458.256 161.351C458.255 162.207 457.494 163.062 456.851 163.872Z" fill="#5F8B3D"/>
<path d="M319.185 161.207C321.769 161.559 324.295 162.641 326.844 162.7C336.054 162.914 345.272 162.785 354.486 162.783C357.314 162.782 358.901 161.36 358.948 158.471C359.033 153.312 359.412 148.096 358.799 143.012C358.455 140.156 356.369 137.519 355.072 134.781C354.579 133.74 354.097 132.694 353.607 131.418C355.548 133.574 357.508 135.947 359.414 138.365C359.7 138.728 359.868 139.301 359.863 139.774C359.788 147.448 359.679 155.122 359.561 162.795C359.557 163.073 359.378 163.347 359.217 163.801C358.486 163.865 357.722 163.99 356.957 163.991C345.276 164.003 333.594 163.975 321.913 164.025C320.082 164.033 318.7 163.869 319.185 161.207Z" fill="#5F8B3D"/>
<path d="M48.6572 131.077C46.2931 130.819 43.675 130.731 41.3108 129.895C37.7521 128.637 34.3733 126.85 30.9118 125.301C30.3061 125.03 29.6574 124.86 29.0508 124.591C28.1135 124.174 27.1723 123.756 26.278 123.255C25.7483 122.958 25.3056 122.499 24.8237 122.113C24.4677 122.635 24.0706 123.133 23.7628 123.683C22.2899 126.314 20.8413 128.959 19.1794 131.665C20.3071 128.183 21.5656 124.601 23.0635 121.127C23.2551 120.683 24.8507 120.419 25.5299 120.713C33.2222 124.041 40.8626 127.494 48.6572 131.077Z" fill="#2C3311"/>
<path d="M18.7868 131.776C19.3008 136.291 16.7419 140.04 14.7043 143.537C10.4691 150.806 12.6882 151.846 19.289 154.681C22.1599 155.914 25.0101 157.199 27.8364 158.534C28.1873 158.7 28.3331 159.319 28.589 159.936C22.9009 157.46 17.1696 154.833 11.5349 152.006C10.9315 151.703 10.382 150.003 10.6684 149.338C13.2 143.457 15.9262 137.664 18.7868 131.776Z" fill="#2C3311"/>
<path d="M171.197 73.974C169.972 76.4566 168.822 79.2168 167.092 81.5239C163.56 86.2344 159.757 90.7373 155.957 95.2298C155.371 95.9225 154.208 96.1059 153.122 96.4924C154.55 94.4776 156.18 92.5047 157.785 90.5109C162.199 85.0275 166.602 79.5352 171.197 73.974Z" fill="#2C3311"/>
<path d="M410.641 146.802C411.134 146.718 411.922 146.628 412.193 146.968C416.084 151.84 419.864 156.804 423.788 161.646C424.318 162.299 425.467 162.47 426.362 162.759C427.248 163.046 428.176 163.2 429.146 163.625C425.956 164.455 423.499 163.748 421.396 160.681C418.124 155.908 414.291 151.537 410.641 146.802Z" fill="#5F8B3D"/>
<path d="M199.701 95.9425C199.306 94.3221 199.712 93.1792 201.041 91.8219C203.227 89.5898 204.728 86.6677 206.598 84.0976C207.064 83.4576 207.838 83.0513 208.689 82.5309C205.904 86.9812 202.9 91.4382 199.701 95.9425Z" fill="#2C3311"/>
<path d="M64.694 134.11C60.0757 135.787 55.4883 134.113 50.8589 133.292C50.5047 133.229 50.2884 132.356 49.9901 131.645C54.8234 132.268 59.6745 133.105 64.694 134.11Z" fill="#2C3311"/>
<path d="M152.815 96.5193C152.855 96.6392 152.751 96.8129 152.506 97.0477C152.466 96.9302 152.568 96.7517 152.815 96.5193Z" fill="#2C3311"/>
<path d="M322.977 93.208C322.942 93.2297 323.012 93.1863 322.977 93.208V93.208Z" fill="#2C3311"/>
</svg>
