<svg width="40" height="40" viewBox="0 0 40 40" fill="none" xmlns="http://www.w3.org/2000/svg">
<path d="M21.7917 33.6252L23.0833 21.2085C21.5 20.7918 20.3056 20.2435 19.5 19.5635C18.6944 18.8835 17.8889 18.1402 17.0833 17.3335L13.125 21.2502L16.1667 24.2918C16.3333 24.4585 16.4583 24.6463 16.5417 24.8552C16.625 25.0641 16.6667 25.2791 16.6667 25.5002V33.3335C16.6667 33.8057 16.5067 34.2018 16.1867 34.5218C15.8667 34.8418 15.4711 35.0013 15 35.0002C14.5289 34.9991 14.1333 34.8391 13.8133 34.5202C13.4933 34.2013 13.3333 33.8057 13.3333 33.3335V26.2502L12.0417 25.0835L12.25 26.6252C12.2778 26.8474 12.2639 27.0696 12.2083 27.2918C12.1528 27.5141 12.0556 27.7085 11.9167 27.8752L7.20833 33.9168C6.93055 34.278 6.56222 34.4863 6.10333 34.5418C5.64444 34.5974 5.235 34.4724 4.875 34.1668C4.515 33.8613 4.30666 33.4863 4.25 33.0418C4.19333 32.5974 4.31833 32.1946 4.625 31.8335L8.83333 26.4168L6.45833 21.7502C6.23611 21.278 6.11111 20.6874 6.08333 19.9785C6.05555 19.2696 6.29166 18.6657 6.79166 18.1668L12.375 12.6668C12.7083 12.3335 13.0767 12.0835 13.48 11.9168C13.8833 11.7502 14.2928 11.6668 14.7083 11.6668C15.375 11.6668 15.9028 11.7918 16.2917 12.0418C16.6806 12.2918 16.9444 12.4863 17.0833 12.6252L20.4167 15.9168C21.1667 16.6668 22.0833 17.2568 23.1667 17.6868C24.25 18.1168 25.4167 18.3324 26.6667 18.3335H29.4167C30.0556 18.3335 30.6111 18.5485 31.0833 18.9785C31.5556 19.4085 31.8194 19.9435 31.875 20.5835L32.9583 31.1668C33.3194 31.3891 33.6111 31.6874 33.8333 32.0618C34.0556 32.4363 34.1667 32.8602 34.1667 33.3335C34.1667 34.028 33.9233 34.618 33.4367 35.1035C32.95 35.5891 32.36 35.8324 31.6667 35.8335C30.9733 35.8346 30.3761 35.5918 29.875 35.1052C29.3739 34.6185 29.1239 34.028 29.125 33.3335C29.125 32.8613 29.2361 32.4374 29.4583 32.0618C29.6806 31.6863 29.9861 31.388 30.375 31.1668L30.1667 29.1668H24.75L24.2917 33.8752C24.2361 34.1807 24.0906 34.4446 23.855 34.6668C23.6194 34.8891 23.3483 35.0002 23.0417 35.0002C22.6528 35.0002 22.3333 34.868 22.0833 34.6035C21.8333 34.3391 21.7361 34.013 21.7917 33.6252ZM20.8333 12.5002C19.9167 12.5002 19.1322 12.1741 18.48 11.5218C17.8278 10.8696 17.5011 10.0846 17.5 9.16684C17.4989 8.24906 17.8256 7.46462 18.48 6.81351C19.1344 6.1624 19.9189 5.83573 20.8333 5.83351C21.7478 5.83129 22.5328 6.15795 23.1883 6.81351C23.8439 7.46906 24.17 8.25351 24.1667 9.16684C24.1633 10.0802 23.8372 10.8652 23.1883 11.5218C22.5394 12.1785 21.7544 12.5046 20.8333 12.5002ZM25 26.6668H29.9167L29.3333 20.8335H25.625L25 26.6668Z" fill="#3F5A2A"/>
</svg>
